Coordinates
version=1
nRows=5
nColumns=40
inDegrees=yes

Units are S.I. units (second, meters, Newtons, ...)
If the header above contains a line with 'inDegrees', this indicates whether rotational values are in degrees (yes) or radians (no).

endheader
time	pelvis_tilt	pelvis_list	pelvis_rotation	pelvis_tx	pelvis_ty	pelvis_tz	hip_flexion_r	hip_adduction_r	hip_rotation_r	knee_angle_r	knee_angle_r_beta	ankle_angle_r	subtalar_angle_r	mtp_angle_r	hip_flexion_l	hip_adduction_l	hip_rotation_l	knee_angle_l	knee_angle_l_beta	ankle_angle_l	subtalar_angle_l	mtp_angle_l	lumbar_extension	lumbar_bending	lumbar_rotation	arm_flex_r	arm_add_r	arm_rot_r	elbow_flex_r	pro_sup_r	wrist_flex_r	wrist_dev_r	arm_flex_l	arm_add_l	arm_rot_l	elbow_flex_l	pro_sup_l	wrist_flex_l	wrist_dev_l
      5.73500000	    -19.33499396	      3.08565599	      0.41743848	     -0.33506892	      0.91008223	     -0.91295450	     53.55029562	    -15.41982894	     -5.42592243	     56.22238019	      0.98126565	     23.98061815	      0.00000000	      0.00000000	     53.08110033	     -6.65502031	     -1.41460110	     56.37724698	      0.98396858	     24.19494634	      0.00000000	      0.00000000	    -27.28186140	      1.34782960	     -7.32332591	    -14.76020681	    -59.48092657	     47.50136061	    108.63064380	     87.57522533	      0.00000000	      0.00000000	    -24.81005994	    -53.96434154	     38.68451112	     97.59261630	     88.00095551	      0.00000000	      0.00000000
      5.74000000	    -18.44165796	      2.69511217	      0.51096950	     -0.32950379	      0.91876355	     -0.91224231	     51.16112382	    -15.18934515	     -6.45915193	     54.41439043	      0.94971027	     23.23758540	      0.00000000	      0.00000000	     51.07111120	     -6.98879758	     -1.56687089	     54.83621797	      0.95707255	     23.38152964	      0.00000000	      0.00000000	    -26.97037255	      1.65777451	     -7.20470981	    -15.50710277	    -59.15741789	     46.83319851	    108.28768457	     87.55551862	      0.00000000	      0.00000000	    -25.65997787	    -53.60816401	     37.89592308	     97.45262585	     87.98401728	      0.00000000	      0.00000000
      5.74500000	    -17.80625638	      2.60900954	      0.44111338	     -0.32449856	      0.92721586	     -0.91166201	     49.20888082	    -15.06043908	     -7.22339997	     52.58313833	      0.91774889	     22.55961739	      0.00000000	      0.00000000	     49.24087621	     -7.19049009	     -2.04830664	     53.15978746	      0.92781332	     22.61941216	      0.00000000	      0.00000000	    -26.55701353	      1.63545492	     -7.08015406	    -17.24596171	    -58.76129427	     44.95289005	    108.35240259	     87.58880265	      0.00000000	      0.00000000	    -27.39675039	    -53.03609989	     35.80922512	     97.75184186	     88.00080926	      0.00000000	      0.00000000
      5.75000000	    -17.08664207	      2.62951370	      0.37985138	     -0.31942215	      0.93609087	     -0.91126868	     47.15306022	    -15.02269973	     -7.93679659	     50.64365972	      0.88389861	     21.66150882	      0.00000000	      0.00000000	     47.25326248	     -7.27565008	     -2.60870344	     51.35759032	      0.89635905	     21.49998847	      0.00000000	      0.00000000	    -26.18594158	      1.50852661	     -6.99186888	    -18.63919665	    -58.39662304	     43.50707424	    108.27192890	     87.59139037	      0.00000000	      0.00000000	    -28.66257508	    -52.61971105	     34.45702722	     97.96015008	     88.00749114	      0.00000000	      0.00000000
      5.75500000	    -16.40128474	      2.56409122	      0.25883305	     -0.31428841	      0.94554057	     -0.91066926	     45.01503189	    -14.80212928	     -8.63418275	     48.44339408	      0.84549673	     20.46306383	      0.00000000	      0.00000000	     45.23054318	     -7.47314099	     -3.23933400	     49.38568473	      0.86194280	     20.34724080	      0.00000000	      0.00000000	    -25.75837318	      1.43919344	     -6.84324383	    -19.49995725	    -58.09242790	     42.68301894	    108.05039999	     87.57316392	      0.00000000	      0.00000000	    -29.61400355	    -52.22679167	     33.57596705	     97.97680058	     87.99496330	      0.00000000	      0.00000000
